<svg width="1600" height="289" viewBox="0 0 1600 289" fill="none" xmlns="http://www.w3.org/2000/svg">
<g filter="url(#filter0_d_855_96)">
<path fill-rule="evenodd" clip-rule="evenodd" d="M1533.33 228.165L1600 235.738V168.281V167.581V94.973L1533.33 79.7005L1533.33 79.7004C1466.67 64.4279 1333.33 33.883 1200 30.8285C1129.41 29.2114 1058.82 35.2993 988.235 41.3871C925.49 46.7986 862.745 52.21 800 52.21C723.81 52.21 647.619 44.2309 571.429 36.2518C514.286 30.2675 457.143 24.2831 400 21.665C266.667 15.556 133.333 27.774 66.6666 33.883L0 39.992V167.581V168.281V213.019L66.6666 224.378C133.333 235.738 266.667 258.456 400 266.029C533.333 273.602 666.667 266.029 800 250.883C933.333 235.738 1066.67 225.574 1200 221.788C1333.33 218.001 1466.67 220.592 1533.33 228.165Z" fill="#ED502E"/>
</g>
<path d="M225.78 125L234.48 137.72L243.18 125H254.58L240.6 145.1L255.72 167H244.26L234.48 153.08L224.82 167H213.6L228.6 145.52L214.56 125H225.78ZM274.104 167.48C270.704 167.48 267.644 166.78 264.924 165.38C262.244 163.94 260.144 161.96 258.624 159.44C257.104 156.92 256.344 154.06 256.344 150.86C256.344 147.66 257.104 144.8 258.624 142.28C260.144 139.76 262.244 137.8 264.924 136.4C267.644 134.96 270.704 134.24 274.104 134.24C277.504 134.24 280.544 134.96 283.224 136.4C285.904 137.8 288.004 139.76 289.524 142.28C291.044 144.8 291.804 147.66 291.804 150.86C291.804 154.06 291.044 156.92 289.524 159.44C288.004 161.96 285.904 163.94 283.224 165.38C280.544 166.78 277.504 167.48 274.104 167.48ZM274.104 159.8C276.504 159.8 278.464 159 279.984 157.4C281.544 155.76 282.324 153.58 282.324 150.86C282.324 148.14 281.544 145.98 279.984 144.38C278.464 142.74 276.504 141.92 274.104 141.92C271.704 141.92 269.724 142.74 268.164 144.38C266.604 145.98 265.824 148.14 265.824 150.86C265.824 153.58 266.604 155.76 268.164 157.4C269.724 159 271.704 159.8 274.104 159.8ZM324.19 142.4H313.27V167H303.97V142.4H293.05V134.72H324.19V142.4ZM329.18 134.72H338.48V153.92L354.2 134.72H362.78V167H353.48V147.8L337.82 167H329.18V134.72ZM398.897 142.4H387.977V167H378.677V142.4H367.757V134.72H398.897V142.4ZM433.919 150.98C433.919 151.1 433.859 151.94 433.739 153.5H409.319C409.759 155.5 410.799 157.08 412.439 158.24C414.079 159.4 416.119 159.98 418.559 159.98C420.239 159.98 421.719 159.74 422.999 159.26C424.319 158.74 425.539 157.94 426.659 156.86L431.639 162.26C428.599 165.74 424.159 167.48 418.319 167.48C414.679 167.48 411.459 166.78 408.659 165.38C405.859 163.94 403.699 161.96 402.179 159.44C400.659 156.92 399.899 154.06 399.899 150.86C399.899 147.7 400.639 144.86 402.119 142.34C403.639 139.78 405.699 137.8 408.299 136.4C410.939 134.96 413.879 134.24 417.119 134.24C420.279 134.24 423.139 134.92 425.699 136.28C428.259 137.64 430.259 139.6 431.699 142.16C433.179 144.68 433.919 147.62 433.919 150.98ZM417.179 141.32C415.059 141.32 413.279 141.92 411.839 143.12C410.399 144.32 409.519 145.96 409.199 148.04H425.099C424.779 146 423.899 144.38 422.459 143.18C421.019 141.94 419.259 141.32 417.179 141.32ZM490.186 134.72V167H480.826V142.4H467.386V167H458.086V134.72H490.186ZM518.18 134.24C521.18 134.24 523.9 134.94 526.34 136.34C528.82 137.7 530.76 139.64 532.16 142.16C533.56 144.64 534.26 147.54 534.26 150.86C534.26 154.18 533.56 157.1 532.16 159.62C530.76 162.1 528.82 164.04 526.34 165.44C523.9 166.8 521.18 167.48 518.18 167.48C514.06 167.48 510.82 166.18 508.46 163.58V178.64H499.1V134.72H508.04V138.44C510.36 135.64 513.74 134.24 518.18 134.24ZM516.56 159.8C518.96 159.8 520.92 159 522.44 157.4C524 155.76 524.78 153.58 524.78 150.86C524.78 148.14 524 145.98 522.44 144.38C520.92 142.74 518.96 141.92 516.56 141.92C514.16 141.92 512.18 142.74 510.62 144.38C509.1 145.98 508.34 148.14 508.34 150.86C508.34 153.58 509.1 155.76 510.62 157.4C512.18 159 514.16 159.8 516.56 159.8ZM540.82 134.72H550.12V153.92L565.84 134.72H574.42V167H565.12V147.8L549.46 167H540.82V134.72ZM608.078 150.14C611.878 151.42 613.778 153.98 613.778 157.82C613.778 160.74 612.678 163 610.478 164.6C608.278 166.2 604.998 167 600.638 167H583.418V134.72H599.918C603.958 134.72 607.118 135.46 609.398 136.94C611.678 138.38 612.818 140.42 612.818 143.06C612.818 144.66 612.398 146.08 611.558 147.32C610.758 148.52 609.598 149.46 608.078 150.14ZM591.998 147.98H599.078C602.358 147.98 603.998 146.82 603.998 144.5C603.998 142.22 602.358 141.08 599.078 141.08H591.998V147.98ZM599.858 160.64C603.298 160.64 605.018 159.46 605.018 157.1C605.018 155.86 604.618 154.96 603.818 154.4C603.018 153.8 601.758 153.5 600.038 153.5H591.998V160.64H599.858ZM651.702 134.72V167H642.342V142.4H632.142L631.842 148.1C631.682 152.34 631.282 155.86 630.642 158.66C630.002 161.46 628.962 163.66 627.522 165.26C626.082 166.86 624.082 167.66 621.522 167.66C620.162 167.66 618.542 167.42 616.662 166.94L617.142 159.26C617.782 159.34 618.242 159.38 618.522 159.38C619.922 159.38 620.962 158.88 621.642 157.88C622.362 156.84 622.842 155.54 623.082 153.98C623.322 152.38 623.502 150.28 623.622 147.68L624.102 134.72H651.702ZM692.083 150.98C692.083 151.1 692.023 151.94 691.903 153.5H667.483C667.923 155.5 668.963 157.08 670.603 158.24C672.243 159.4 674.283 159.98 676.723 159.98C678.403 159.98 679.883 159.74 681.163 159.26C682.483 158.74 683.703 157.94 684.823 156.86L689.803 162.26C686.763 165.74 682.323 167.48 676.483 167.48C672.843 167.48 669.623 166.78 666.823 165.38C664.023 163.94 661.863 161.96 660.343 159.44C658.823 156.92 658.063 154.06 658.063 150.86C658.063 147.7 658.803 144.86 660.283 142.34C661.803 139.78 663.863 137.8 666.463 136.4C669.103 134.96 672.043 134.24 675.283 134.24C678.443 134.24 681.303 134.92 683.863 136.28C686.423 137.64 688.423 139.6 689.863 142.16C691.343 144.68 692.083 147.62 692.083 150.98ZM675.343 141.32C673.223 141.32 671.443 141.92 670.003 143.12C668.563 144.32 667.683 145.96 667.363 148.04H683.263C682.943 146 682.063 144.38 680.623 143.18C679.183 141.94 677.423 141.32 675.343 141.32ZM728.298 134.72V167H718.938V155C716.218 156.36 713.218 157.04 709.938 157.04C705.578 157.04 702.278 156.06 700.038 154.1C697.838 152.1 696.738 149.02 696.738 144.86V134.72H706.098V144.26C706.098 146.22 706.598 147.64 707.598 148.52C708.638 149.4 710.118 149.84 712.038 149.84C714.478 149.84 716.778 149.32 718.938 148.28V134.72H728.298ZM754.745 145.04C758.945 145.08 762.165 146.04 764.405 147.92C766.645 149.76 767.765 152.38 767.765 155.78C767.765 159.34 766.505 162.12 763.985 164.12C761.505 166.08 758.005 167.06 753.485 167.06L737.285 167V134.72H746.585V145.04H754.745ZM752.645 160.4C754.445 160.44 755.825 160.06 756.785 159.26C757.745 158.46 758.225 157.26 758.225 155.66C758.225 154.1 757.745 152.96 756.785 152.24C755.865 151.52 754.485 151.14 752.645 151.1L746.585 151.04V160.4H752.645ZM804.825 154.76H799.965V167H790.605V134.72H799.965V147.26H805.005L813.765 134.72H823.725L812.445 150.2L824.505 167H813.465L804.825 154.76ZM860.062 134.72V167H850.702V142.4H840.502L840.202 148.1C840.042 152.34 839.642 155.86 839.002 158.66C838.362 161.46 837.322 163.66 835.882 165.26C834.442 166.86 832.442 167.66 829.882 167.66C828.522 167.66 826.902 167.42 825.022 166.94L825.502 159.26C826.142 159.34 826.602 159.38 826.882 159.38C828.282 159.38 829.322 158.88 830.002 157.88C830.722 156.84 831.202 155.54 831.442 153.98C831.682 152.38 831.862 150.28 831.982 147.68L832.462 134.72H860.062ZM869.063 134.72H878.363V153.92L894.083 134.72H902.663V167H893.363V147.8L877.703 167H869.063V134.72ZM943.04 150.98C943.04 151.1 942.98 151.94 942.86 153.5H918.44C918.88 155.5 919.92 157.08 921.56 158.24C923.2 159.4 925.24 159.98 927.68 159.98C929.36 159.98 930.84 159.74 932.12 159.26C933.44 158.74 934.66 157.94 935.78 156.86L940.76 162.26C937.72 165.74 933.28 167.48 927.44 167.48C923.8 167.48 920.58 166.78 917.78 165.38C914.98 163.94 912.82 161.96 911.3 159.44C909.78 156.92 909.02 154.06 909.02 150.86C909.02 147.7 909.76 144.86 911.24 142.34C912.76 139.78 914.82 137.8 917.42 136.4C920.06 134.96 923 134.24 926.24 134.24C929.4 134.24 932.26 134.92 934.82 136.28C937.38 137.64 939.38 139.6 940.82 142.16C942.3 144.68 943.04 147.62 943.04 150.98ZM926.3 141.32C924.18 141.32 922.4 141.92 920.96 143.12C919.52 144.32 918.64 145.96 918.32 148.04H934.22C933.9 146 933.02 144.38 931.58 143.18C930.14 141.94 928.38 141.32 926.3 141.32ZM950.215 134.72H959.515V147.32H973.555V134.72H982.915V167H973.555V154.94H959.515V167H950.215V134.72ZM1019 142.4H1008.08V167H998.775V142.4H987.855V134.72H1019V142.4ZM1037.76 167.48C1034.36 167.48 1031.3 166.78 1028.58 165.38C1025.9 163.94 1023.8 161.96 1022.28 159.44C1020.76 156.92 1020 154.06 1020 150.86C1020 147.66 1020.76 144.8 1022.28 142.28C1023.8 139.76 1025.9 137.8 1028.58 136.4C1031.3 134.96 1034.36 134.24 1037.76 134.24C1041.16 134.24 1044.2 134.96 1046.88 136.4C1049.56 137.8 1051.66 139.76 1053.18 142.28C1054.7 144.8 1055.46 147.66 1055.46 150.86C1055.46 154.06 1054.7 156.92 1053.18 159.44C1051.66 161.96 1049.56 163.94 1046.88 165.38C1044.2 166.78 1041.16 167.48 1037.76 167.48ZM1037.76 159.8C1040.16 159.8 1042.12 159 1043.64 157.4C1045.2 155.76 1045.98 153.58 1045.98 150.86C1045.98 148.14 1045.2 145.98 1043.64 144.38C1042.12 142.74 1040.16 141.92 1037.76 141.92C1035.36 141.92 1033.38 142.74 1031.82 144.38C1030.26 145.98 1029.48 148.14 1029.48 150.86C1029.48 153.58 1030.26 155.76 1031.82 157.4C1033.38 159 1035.36 159.8 1037.76 159.8ZM1086.55 150.14C1090.35 151.42 1092.25 153.98 1092.25 157.82C1092.25 160.74 1091.15 163 1088.95 164.6C1086.75 166.2 1083.47 167 1079.11 167H1061.89V134.72H1078.39C1082.43 134.72 1085.59 135.46 1087.87 136.94C1090.15 138.38 1091.29 140.42 1091.29 143.06C1091.29 144.66 1090.87 146.08 1090.03 147.32C1089.23 148.52 1088.07 149.46 1086.55 150.14ZM1070.47 147.98H1077.55C1080.83 147.98 1082.47 146.82 1082.47 144.5C1082.47 142.22 1080.83 141.08 1077.55 141.08H1070.47V147.98ZM1078.33 160.64C1081.77 160.64 1083.49 159.46 1083.49 157.1C1083.49 155.86 1083.09 154.96 1082.29 154.4C1081.49 153.8 1080.23 153.5 1078.51 153.5H1070.47V160.64H1078.33ZM1107.74 152.42C1107.74 150.34 1108.2 148.62 1109.12 147.26C1110.08 145.9 1111.46 144.4 1113.26 142.76C1114.58 141.56 1115.54 140.56 1116.14 139.76C1116.78 138.92 1117.1 137.98 1117.1 136.94C1117.1 135.46 1116.5 134.3 1115.3 133.46C1114.14 132.58 1112.58 132.14 1110.62 132.14C1108.74 132.14 1107.06 132.54 1105.58 133.34C1104.14 134.1 1102.92 135.18 1101.92 136.58L1094.66 132.32C1096.34 129.76 1098.6 127.78 1101.44 126.38C1104.32 124.98 1107.72 124.28 1111.64 124.28C1116.24 124.28 1119.92 125.26 1122.68 127.22C1125.48 129.18 1126.88 131.9 1126.88 135.38C1126.88 137.02 1126.6 138.46 1126.04 139.7C1125.52 140.94 1124.86 142 1124.06 142.88C1123.3 143.72 1122.3 144.7 1121.06 145.82C1119.58 147.14 1118.5 148.26 1117.82 149.18C1117.14 150.06 1116.8 151.14 1116.8 152.42H1107.74ZM1112.3 167.48C1110.66 167.48 1109.28 166.96 1108.16 165.92C1107.08 164.84 1106.54 163.54 1106.54 162.02C1106.54 160.5 1107.08 159.24 1108.16 158.24C1109.24 157.2 1110.62 156.68 1112.3 156.68C1113.98 156.68 1115.36 157.2 1116.44 158.24C1117.52 159.24 1118.06 160.5 1118.06 162.02C1118.06 163.54 1117.5 164.84 1116.38 165.92C1115.3 166.96 1113.94 167.48 1112.3 167.48Z" fill="white"/>
<defs>
<filter id="filter0_d_855_96" x="-20" y="0" width="1640" height="289" filterUnits="userSpaceOnUse" color-interpolation-filters="sRGB">
<feFlood flood-opacity="0" result="BackgroundImageFix"/>
<feColorMatrix in="SourceAlpha" type="matrix" values="0 0 0 0 0 0 0 0 0 0 0 0 0 0 0 0 0 0 127 0" result="hardAlpha"/>
<feOffset/>
<feGaussianBlur stdDeviation="10"/>
<feComposite in2="hardAlpha" operator="out"/>
<feColorMatrix type="matrix" values="0 0 0 0 0.929412 0 0 0 0 0.313726 0 0 0 0 0.180392 0 0 0 1 0"/>
<feBlend mode="normal" in2="BackgroundImageFix" result="effect1_dropShadow_855_96"/>
<feBlend mode="normal" in="SourceGraphic" in2="effect1_dropShadow_855_96" result="shape"/>
</filter>
</defs>
</svg>
