<svg width="40" height="57" viewBox="0 0 40 57" fill="none" xmlns="http://www.w3.org/2000/svg">
<path d="M11.3222 50.2665V54.4245C11.3222 55.2285 11.1233 55.8225 10.7256 56.2065C10.334 56.5965 9.74044 56.7915 8.94506 56.7915C8.50519 56.7915 8.08641 56.7255 7.68871 56.5935C7.29705 56.4675 6.97769 56.2905 6.73064 56.0625L7.05602 55.5765C7.285 55.7805 7.56218 55.9395 7.88756 56.0535C8.21897 56.1675 8.56544 56.2245 8.92698 56.2245C9.52955 56.2245 9.97243 56.0835 10.2556 55.8015C10.5388 55.5255 10.6804 55.0935 10.6804 54.5055V53.9025C10.4816 54.2025 10.2195 54.4305 9.8941 54.5865C9.57474 54.7425 9.21923 54.8205 8.82756 54.8205C8.38166 54.8205 7.97493 54.7245 7.60737 54.5325C7.24583 54.3345 6.95961 54.0615 6.74871 53.7135C6.54384 53.3595 6.44141 52.9605 6.44141 52.5165C6.44141 52.0725 6.54384 51.6765 6.74871 51.3285C6.95961 50.9805 7.24583 50.7105 7.60737 50.5185C7.96891 50.3265 8.37564 50.2305 8.82756 50.2305C9.23128 50.2305 9.59583 50.3115 9.92121 50.4735C10.2466 50.6355 10.5087 50.8695 10.7076 51.1755V50.2665H11.3222ZM8.89083 54.2535C9.23429 54.2535 9.54461 54.1815 9.82179 54.0375C10.099 53.8875 10.3129 53.6805 10.4635 53.4165C10.6202 53.1525 10.6985 52.8525 10.6985 52.5165C10.6985 52.1805 10.6202 51.8835 10.4635 51.6255C10.3129 51.3615 10.099 51.1575 9.82179 51.0135C9.55064 50.8635 9.24032 50.7885 8.89083 50.7885C8.54737 50.7885 8.23705 50.8605 7.95987 51.0045C7.68871 51.1485 7.4748 51.3525 7.31814 51.6165C7.1675 51.8805 7.09218 52.1805 7.09218 52.5165C7.09218 52.8525 7.1675 53.1525 7.31814 53.4165C7.4748 53.6805 7.68871 53.8875 7.95987 54.0375C8.23705 54.1815 8.54737 54.2535 8.89083 54.2535ZM13.7313 51.1935C13.882 50.8755 14.1049 50.6355 14.4002 50.4735C14.7015 50.3115 15.072 50.2305 15.5119 50.2305V50.8515L15.3583 50.8425C14.8581 50.8425 14.4665 50.9955 14.1833 51.3015C13.9 51.6075 13.7584 52.0365 13.7584 52.5885V55.0005H13.1167V50.2665H13.7313V51.1935ZM18.573 55.0455C18.1151 55.0455 17.7023 54.9435 17.3348 54.7395C16.9672 54.5295 16.678 54.2415 16.4671 53.8755C16.2562 53.5095 16.1507 53.0955 16.1507 52.6335C16.1507 52.1715 16.2562 51.7575 16.4671 51.3915C16.678 51.0255 16.9672 50.7405 17.3348 50.5365C17.7023 50.3325 18.1151 50.2305 18.573 50.2305C19.031 50.2305 19.4437 50.3325 19.8113 50.5365C20.1789 50.7405 20.4651 51.0255 20.67 51.3915C20.8809 51.7575 20.9863 52.1715 20.9863 52.6335C20.9863 53.0955 20.8809 53.5095 20.67 53.8755C20.4651 54.2415 20.1789 54.5295 19.8113 54.7395C19.4437 54.9435 19.031 55.0455 18.573 55.0455ZM18.573 54.4785C18.9105 54.4785 19.2117 54.4035 19.4769 54.2535C19.748 54.0975 19.9589 53.8785 20.1096 53.5965C20.2602 53.3145 20.3355 52.9935 20.3355 52.6335C20.3355 52.2735 20.2602 51.9525 20.1096 51.6705C19.9589 51.3885 19.748 51.1725 19.4769 51.0225C19.2117 50.8665 18.9105 50.7885 18.573 50.7885C18.2356 50.7885 17.9313 50.8665 17.6601 51.0225C17.395 51.1725 17.1841 51.3885 17.0275 51.6705C16.8768 51.9525 16.8015 52.2735 16.8015 52.6335C16.8015 52.9935 16.8768 53.3145 17.0275 53.5965C17.1841 53.8785 17.395 54.0975 17.6601 54.2535C17.9313 54.4035 18.2356 54.4785 18.573 54.4785ZM26.5806 50.2665V55.0005H25.966V54.1365C25.7973 54.4245 25.5653 54.6495 25.27 54.8115C24.9748 54.9675 24.6373 55.0455 24.2577 55.0455C23.6371 55.0455 23.146 54.8745 22.7845 54.5325C22.4289 54.1845 22.2512 53.6775 22.2512 53.0115V50.2665H22.8929V52.9485C22.8929 53.4465 23.0164 53.8245 23.2635 54.0825C23.5105 54.3405 23.863 54.4695 24.321 54.4695C24.8211 54.4695 25.2158 54.3195 25.505 54.0195C25.7943 53.7135 25.9389 53.2905 25.9389 52.7505V50.2665H26.5806ZM30.8274 50.2305C31.2733 50.2305 31.677 50.3325 32.0385 50.5365C32.4001 50.7345 32.6833 51.0165 32.8881 51.3825C33.093 51.7485 33.1955 52.1655 33.1955 52.6335C33.1955 53.1075 33.093 53.5275 32.8881 53.8935C32.6833 54.2595 32.4001 54.5445 32.0385 54.7485C31.683 54.9465 31.2793 55.0455 30.8274 55.0455C30.4417 55.0455 30.0923 54.9675 29.7789 54.8115C29.4716 54.6495 29.2185 54.4155 29.0197 54.1095V56.7465H28.378V50.2665H28.9926V51.2025C29.1854 50.8905 29.4385 50.6505 29.7518 50.4825C30.0712 50.3145 30.4297 50.2305 30.8274 50.2305ZM30.7822 54.4785C31.1136 54.4785 31.4149 54.4035 31.686 54.2535C31.9572 54.0975 32.1681 53.8785 32.3187 53.5965C32.4754 53.3145 32.5537 52.9935 32.5537 52.6335C32.5537 52.2735 32.4754 51.9555 32.3187 51.6795C32.1681 51.3975 31.9572 51.1785 31.686 51.0225C31.4149 50.8665 31.1136 50.7885 30.7822 50.7885C30.4447 50.7885 30.1405 50.8665 29.8693 51.0225C29.6042 51.1785 29.3933 51.3975 29.2366 51.6795C29.086 51.9555 29.0106 52.2735 29.0106 52.6335C29.0106 52.9935 29.086 53.3145 29.2366 53.5965C29.3933 53.8785 29.6042 54.0975 29.8693 54.2535C30.1405 54.4035 30.4447 54.4785 30.7822 54.4785Z" fill="#4D4D4D"/>
<path d="M30.534 33.3989L29.4132 32.2829C28.666 33.0029 27.726 33.3629 26.5932 33.3629C26.0308 33.3629 25.5246 33.2709 25.0747 33.0869C24.6248 32.9029 24.2713 32.6469 24.0142 32.3189C23.7652 31.9829 23.6406 31.6029 23.6406 31.1789C23.6406 30.6669 23.7973 30.2149 24.1106 29.8229C24.432 29.4229 24.9582 29.0149 25.6893 28.5989C25.3198 28.2309 25.0587 27.8989 24.906 27.6029C24.7534 27.3069 24.677 26.9989 24.677 26.6789C24.677 26.1109 24.8819 25.6549 25.2916 25.3109C25.7094 24.9669 26.2638 24.7949 26.9547 24.7949C27.5975 24.7949 28.1076 24.9509 28.4852 25.2629C28.8628 25.5749 29.0516 26.0029 29.0516 26.5469C29.0516 26.9709 28.9111 27.3509 28.6299 27.6869C28.3567 28.0229 27.8987 28.3749 27.256 28.7429L29.3409 30.8069C29.5819 30.3509 29.7546 29.8429 29.8591 29.2829L30.787 29.5829C30.6424 30.3189 30.3974 30.9589 30.0519 31.5029L31.1847 32.6309L30.534 33.3989ZM26.9547 25.6349C26.5771 25.6349 26.2799 25.7309 26.0629 25.9229C25.854 26.1069 25.7496 26.3509 25.7496 26.6549C25.7496 26.8709 25.8058 27.0789 25.9183 27.2789C26.0388 27.4789 26.2678 27.7509 26.6052 28.0949C27.1596 27.7829 27.5412 27.5149 27.7501 27.2909C27.967 27.0669 28.0755 26.8229 28.0755 26.5589C28.0755 26.2789 27.9751 26.0549 27.7742 25.8869C27.5814 25.7189 27.3082 25.6349 26.9547 25.6349ZM26.6655 32.4029C27.5011 32.4029 28.188 32.1389 28.7263 31.6109L26.3281 29.2349C25.7496 29.5549 25.3439 29.8549 25.1109 30.1349C24.8859 30.4069 24.7734 30.7149 24.7734 31.0589C24.7734 31.4589 24.9462 31.7829 25.2916 32.0309C25.6452 32.2789 26.1031 32.4029 26.6655 32.4029Z" fill="#4D4D4D"/>
<path d="M16.0533 32.0724L9.88301 38.3124V47.0004H5.0625V13.4004H9.88301V32.1684L28.201 13.4004H33.6963L19.283 28.5204L34.6122 47.0004H28.9722L16.0533 32.0724Z" fill="#4D4D4D"/>
<path d="M20.7701 46.1697C17.7894 46.1697 15.1039 45.5257 12.7138 44.2377C10.3236 42.9217 8.43959 41.1157 7.06173 38.8197C5.71198 36.5237 5.03711 33.9617 5.03711 31.1337C5.03711 28.3057 5.71198 25.7437 7.06173 23.4477C8.43959 21.1517 10.3236 19.3597 12.7138 18.0717C15.1039 16.7557 17.7894 16.0977 20.7701 16.0977C23.7226 16.0977 26.394 16.7557 28.7842 18.0717C31.1743 19.3597 33.0443 21.1517 34.394 23.4477C35.7438 25.7157 36.4186 28.2777 36.4186 31.1337C36.4186 33.9897 35.7438 36.5657 34.394 38.8617C33.0443 41.1297 31.1743 42.9217 28.7842 44.2377C26.394 45.5257 23.7226 46.1697 20.7701 46.1697ZM20.7701 42.4317C22.9353 42.4317 24.8755 41.9417 26.5908 40.9617C28.3342 39.9817 29.698 38.6377 30.6822 36.9297C31.6945 35.1937 32.2007 33.2617 32.2007 31.1337C32.2007 29.0057 31.6945 27.0877 30.6822 25.3797C29.698 23.6437 28.3342 22.2857 26.5908 21.3057C24.8755 20.3257 22.9353 19.8357 20.7701 19.8357C18.6048 19.8357 16.6365 20.3257 14.8649 21.3057C13.1215 22.2857 11.7436 23.6437 10.7313 25.3797C9.74715 27.0877 9.25506 29.0057 9.25506 31.1337C9.25506 33.2617 9.74715 35.1937 10.7313 36.9297C11.7436 38.6377 13.1215 39.9817 14.8649 40.9617C16.6365 41.9417 18.6048 42.4317 20.7701 42.4317Z" fill="#4D4D4D"/>
</svg>
