<svg width="41" height="58" viewBox="0 0 41 58" fill="none" xmlns="http://www.w3.org/2000/svg">
<path d="M8.84093 48.9878V54.4499C8.84093 55.5061 8.58816 56.2864 8.08263 56.7909C7.58477 57.3032 6.8303 57.5593 5.81925 57.5593C5.2601 57.5593 4.72777 57.4726 4.22224 57.2992C3.72437 57.1337 3.31842 56.9012 3.00438 56.6017L3.41799 55.9633C3.70905 56.2312 4.06139 56.4401 4.475 56.5899C4.89628 56.7396 5.3367 56.8145 5.79627 56.8145C6.56222 56.8145 7.12519 56.6293 7.48519 56.2588C7.84519 55.8963 8.02519 55.3288 8.02519 54.5564V53.7642C7.77242 54.1583 7.43924 54.4578 7.02562 54.6628C6.61967 54.8677 6.16776 54.9701 5.66989 54.9701C5.10308 54.9701 4.58607 54.844 4.11883 54.5918C3.65926 54.3317 3.29544 53.9731 3.02735 53.516C2.76693 53.0509 2.63672 52.5268 2.63672 51.9435C2.63672 51.3603 2.76693 50.8401 3.02735 50.3829C3.29544 49.9258 3.65926 49.5711 4.11883 49.3189C4.57841 49.0667 5.09542 48.9406 5.66989 48.9406C6.18307 48.9406 6.64647 49.047 7.06009 49.2598C7.4737 49.4726 7.80689 49.78 8.05966 50.1819V48.9878H8.84093ZM5.75031 54.2253C6.1869 54.2253 6.58137 54.1307 6.93371 53.9416C7.28604 53.7445 7.55796 53.4726 7.74944 53.1258C7.94859 52.779 8.04817 52.3849 8.04817 51.9435C8.04817 51.5021 7.94859 51.112 7.74944 50.7731C7.55796 50.4263 7.28604 50.1583 6.93371 49.9691C6.58903 49.7721 6.19456 49.6736 5.75031 49.6736C5.31372 49.6736 4.91925 49.7681 4.56692 49.9573C4.22224 50.1465 3.95033 50.4145 3.75118 50.7613C3.55969 51.1081 3.46395 51.5021 3.46395 51.9435C3.46395 52.3849 3.55969 52.779 3.75118 53.1258C3.95033 53.4726 4.22224 53.7445 4.56692 53.9416C4.91925 54.1307 5.31372 54.2253 5.75031 54.2253ZM11.9033 50.2056C12.0948 49.7878 12.3782 49.4726 12.7535 49.2598C13.1365 49.047 13.6076 48.9406 14.1667 48.9406V49.7563L13.9714 49.7445C13.3357 49.7445 12.8378 49.9455 12.4778 50.3475C12.1178 50.7494 11.9378 51.313 11.9378 52.0381V55.2066H11.1221V48.9878H11.9033V50.2056ZM18.0579 55.2657C17.4758 55.2657 16.9511 55.1317 16.4838 54.8637C16.0166 54.5879 15.649 54.2096 15.3809 53.7288C15.1128 53.248 14.9788 52.7041 14.9788 52.0972C14.9788 51.4903 15.1128 50.9465 15.3809 50.4657C15.649 49.9849 16.0166 49.6105 16.4838 49.3425C16.9511 49.0745 17.4758 48.9406 18.0579 48.9406C18.64 48.9406 19.1647 49.0745 19.6319 49.3425C20.0991 49.6105 20.463 49.9849 20.7234 50.4657C20.9915 50.9465 21.1255 51.4903 21.1255 52.0972C21.1255 52.7041 20.9915 53.248 20.7234 53.7288C20.463 54.2096 20.0991 54.5879 19.6319 54.8637C19.1647 55.1317 18.64 55.2657 18.0579 55.2657ZM18.0579 54.5209C18.4868 54.5209 18.8698 54.4224 19.2068 54.2253C19.5515 54.0204 19.8196 53.7327 20.0111 53.3623C20.2025 52.9918 20.2983 52.5701 20.2983 52.0972C20.2983 51.6243 20.2025 51.2026 20.0111 50.8322C19.8196 50.4617 19.5515 50.178 19.2068 49.981C18.8698 49.776 18.4868 49.6736 18.0579 49.6736C17.6289 49.6736 17.2421 49.776 16.8975 49.981C16.5604 50.178 16.2924 50.4617 16.0932 50.8322C15.9017 51.2026 15.806 51.6243 15.806 52.0972C15.806 52.5701 15.9017 52.9918 16.0932 53.3623C16.2924 53.7327 16.5604 54.0204 16.8975 54.2253C17.2421 54.4224 17.6289 54.5209 18.0579 54.5209ZM28.2367 48.9878V55.2066H27.4555V54.0716C27.241 54.45 26.9461 54.7455 26.5708 54.9583C26.1955 55.1633 25.7665 55.2657 25.284 55.2657C24.4951 55.2657 23.8708 55.0411 23.4112 54.5918C22.9593 54.1347 22.7334 53.4687 22.7334 52.5938V48.9878H23.5491V52.511C23.5491 53.1652 23.7061 53.6618 24.0202 54.0007C24.3342 54.3396 24.7823 54.5091 25.3644 54.5091C26.0002 54.5091 26.5019 54.312 26.8695 53.9179C27.2372 53.516 27.421 52.9603 27.421 52.2509V48.9878H28.2367ZM33.635 48.9406C34.2018 48.9406 34.715 49.0745 35.1746 49.3425C35.6342 49.6026 35.9942 49.9731 36.2546 50.4539C36.515 50.9347 36.6452 51.4824 36.6452 52.0972C36.6452 52.7199 36.515 53.2716 36.2546 53.7524C35.9942 54.2332 35.6342 54.6076 35.1746 54.8756C34.7227 55.1357 34.2095 55.2657 33.635 55.2657C33.1448 55.2657 32.7006 55.1633 32.3023 54.9583C31.9116 54.7455 31.5899 54.4381 31.3372 54.0362V57.5002H30.5214V48.9878H31.3027V50.2174C31.5478 49.8076 31.8695 49.4923 32.2678 49.2716C32.6738 49.0509 33.1295 48.9406 33.635 48.9406ZM33.5776 54.5209C33.9989 54.5209 34.3818 54.4224 34.7265 54.2253C35.0712 54.0204 35.3393 53.7327 35.5308 53.3623C35.7299 52.9918 35.8295 52.5701 35.8295 52.0972C35.8295 51.6243 35.7299 51.2066 35.5308 50.844C35.3393 50.4736 35.0712 50.1859 34.7265 49.981C34.3818 49.776 33.9989 49.6736 33.5776 49.6736C33.1487 49.6736 32.7619 49.776 32.4172 49.981C32.0802 50.1859 31.8121 50.4736 31.6129 50.844C31.4214 51.2066 31.3257 51.6243 31.3257 52.0972C31.3257 52.5701 31.4214 52.9918 31.6129 53.3623C31.8121 53.7327 32.0802 54.0204 32.4172 54.2253C32.7619 54.4224 33.1487 54.5209 33.5776 54.5209Z" fill="white"/>
<path d="M33.2625 26.8302L31.8378 25.3642C30.888 26.31 29.6932 26.783 28.2532 26.783C27.5383 26.783 26.8949 26.6621 26.323 26.4204C25.7511 26.1787 25.3017 25.8424 24.9749 25.4115C24.6583 24.9701 24.5 24.471 24.5 23.914C24.5 23.2414 24.6991 22.6476 25.0974 22.1327C25.5059 21.6072 26.1749 21.0713 27.1042 20.5248C26.6345 20.0414 26.3025 19.6052 26.1085 19.2164C25.9145 18.8276 25.8174 18.423 25.8174 18.0026C25.8174 17.2565 26.0779 16.6574 26.5987 16.2055C27.1298 15.7537 27.8344 15.5277 28.7127 15.5277C29.5297 15.5277 30.1783 15.7326 30.6582 16.1425C31.1382 16.5523 31.3782 17.1146 31.3782 17.8292C31.3782 18.3862 31.1995 18.8854 30.8421 19.3268C30.4948 19.7681 29.9127 20.2305 29.0957 20.714L31.7459 23.4253C32.0523 22.8263 32.2719 22.159 32.4046 21.4233L33.5842 21.8174C33.4004 22.7842 33.0889 23.625 32.6497 24.3396L34.0897 25.8214L33.2625 26.8302ZM28.7127 16.6312C28.2327 16.6312 27.8549 16.7573 27.5791 17.0095C27.3136 17.2512 27.1808 17.5717 27.1808 17.9711C27.1808 18.2548 27.2523 18.5281 27.3953 18.7908C27.5485 19.0535 27.8395 19.4108 28.2685 19.8627C28.9732 19.4529 29.4583 19.1008 29.7238 18.8066C29.9995 18.5123 30.1374 18.1918 30.1374 17.845C30.1374 17.4771 30.0097 17.1829 29.7544 16.9622C29.5093 16.7415 29.1621 16.6312 28.7127 16.6312ZM28.3451 25.5219C29.4072 25.5219 30.2804 25.1751 30.9646 24.4815L27.9161 21.3603C27.1808 21.7806 26.6651 22.1747 26.3689 22.5425C26.083 22.8998 25.94 23.3044 25.94 23.7563C25.94 24.2818 26.1596 24.7074 26.5987 25.0332C27.0481 25.359 27.6302 25.5219 28.3451 25.5219Z" fill="#D3D3D3"/>
<path d="M15.4713 25.5184L9.11552 37.3412L5.30206 44.6976H0.882812V22.6284V0.559326H7.01043L6.57321 29.4594L24.3694 0.559326H31.2758L18.9593 20.4215L38.4451 44.6976H31.2758L15.4713 25.5184Z" fill="#674646"/>
<path d="M20.8545 43.6065C17.0656 43.6065 13.652 42.7605 10.6137 41.0686C7.57542 39.3398 5.18054 36.9674 3.42907 33.9513C1.71333 30.9351 0.855469 27.5696 0.855469 23.8546C0.855469 20.1397 1.71333 16.7741 3.42907 13.758C5.18054 10.7419 7.57542 8.38787 10.6137 6.6959C13.652 4.96716 17.0656 4.10278 20.8545 4.10278C24.6076 4.10278 28.0033 4.96716 31.0416 6.6959C34.0799 8.38787 36.4569 10.7419 38.1726 13.758C39.8884 16.7373 40.7462 20.1029 40.7462 23.8546C40.7462 27.6064 39.8884 30.9903 38.1726 34.0064C36.4569 36.9858 34.0799 39.3398 31.0416 41.0686C28.0033 42.7605 24.6076 43.6065 20.8545 43.6065ZM20.8545 38.6961C23.6068 38.6961 26.0732 38.0524 28.2536 36.7651C30.4697 35.4777 32.2033 33.7122 33.4544 31.4685C34.7412 29.188 35.3846 26.6501 35.3846 23.8546C35.3846 21.0592 34.7412 18.5397 33.4544 16.296C32.2033 14.0155 30.4697 12.2316 28.2536 10.9442C26.0732 9.65684 23.6068 9.01316 20.8545 9.01316C18.1021 9.01316 15.6 9.65684 13.3481 10.9442C11.132 12.2316 9.38051 14.0155 8.09371 16.296C6.84266 18.5397 6.21713 21.0592 6.21713 23.8546C6.21713 26.6501 6.84266 29.188 8.09371 31.4685C9.38051 33.7122 11.132 35.4777 13.3481 36.7651C15.6 38.0524 18.1021 38.6961 20.8545 38.6961Z" fill="#3A2A2A"/>
<path d="M31.363 0.559326L5.30437 45.0476H0.855334L0.746094 0.559326H7.19847V28.1457L23.7361 0.559326H31.363Z" fill="#858585"/>
</svg>
