<svg width="67" height="94" viewBox="0 0 67 94" fill="none" xmlns="http://www.w3.org/2000/svg">
<path d="M14.4472 79.394V88.2464C14.4472 89.9581 14.0341 91.2228 13.208 92.0404C12.3944 92.8707 11.1615 93.2857 9.50931 93.2857C8.59558 93.2857 7.72568 93.1452 6.89957 92.8642C6.08597 92.596 5.42259 92.2192 4.9094 91.7338L5.5853 90.6991C6.06094 91.1333 6.63671 91.4719 7.31261 91.7146C8.00105 91.9573 8.72076 92.0786 9.47176 92.0786C10.7234 92.0786 11.6434 91.7785 12.2317 91.178C12.82 90.5905 13.1141 89.6708 13.1141 88.419V87.1351C12.7011 87.7738 12.1566 88.2592 11.4807 88.5914C10.8173 88.9235 10.0788 89.0895 9.26524 89.0895C8.33899 89.0895 7.49412 88.8851 6.73058 88.4763C5.97957 88.0548 5.38504 87.4736 4.94694 86.7328C4.52138 85.979 4.30859 85.1296 4.30859 84.1843C4.30859 83.2391 4.52138 82.396 4.94694 81.655C5.38504 80.9142 5.97957 80.3393 6.73058 79.9306C7.4816 79.5219 8.32647 79.3175 9.26524 79.3175C10.1038 79.3175 10.8611 79.4899 11.537 79.8348C12.2129 80.1797 12.7574 80.6779 13.1705 81.3293V79.394H14.4472ZM9.39666 87.8824C10.1101 87.8824 10.7547 87.729 11.3305 87.4226C11.9063 87.1031 12.3506 86.6625 12.6635 86.1004C12.989 85.5384 13.1517 84.8996 13.1517 84.1843C13.1517 83.4689 12.989 82.8367 12.6635 82.2874C12.3506 81.7254 11.9063 81.291 11.3305 80.9844C10.7672 80.6651 10.1226 80.5055 9.39666 80.5055C8.6832 80.5055 8.03858 80.6586 7.46282 80.9653C6.89957 81.2719 6.45522 81.7062 6.12978 82.2683C5.81686 82.8303 5.66041 83.4689 5.66041 84.1843C5.66041 84.8996 5.81686 85.5384 6.12978 86.1004C6.45522 86.6625 6.89957 87.1031 7.46282 87.4226C8.03858 87.729 8.6832 87.8824 9.39666 87.8824ZM19.4515 81.3677C19.7645 80.6906 20.2276 80.1797 20.8409 79.8348C21.4668 79.4899 22.2366 79.3175 23.1503 79.3175V80.6395L22.8311 80.6204C21.7923 80.6204 20.9787 80.9461 20.3904 81.5977C19.8021 82.249 19.5079 83.1624 19.5079 84.3376V89.4727H18.1749V79.394H19.4515V81.3677ZM29.5091 89.5685C28.5578 89.5685 27.7004 89.3514 26.9368 88.917C26.1733 88.47 25.5726 87.8569 25.1344 87.0777C24.6963 86.2985 24.4774 85.417 24.4774 84.4334C24.4774 83.4498 24.6963 82.5684 25.1344 81.7892C25.5726 81.01 26.1733 80.4032 26.9368 79.9689C27.7004 79.5345 28.5578 79.3175 29.5091 79.3175C30.4603 79.3175 31.3177 79.5345 32.0812 79.9689C32.8447 80.4032 33.4393 81.01 33.8649 81.7892C34.303 82.5684 34.522 83.4498 34.522 84.4334C34.522 85.417 34.303 86.2985 33.8649 87.0777C33.4393 87.8569 32.8447 88.47 32.0812 88.917C31.3177 89.3514 30.4603 89.5685 29.5091 89.5685ZM29.5091 88.3614C30.2099 88.3614 30.8358 88.2018 31.3865 87.8824C31.9498 87.5503 32.3879 87.084 32.7009 86.4837C33.0136 85.8832 33.1702 85.1998 33.1702 84.4334C33.1702 83.6669 33.0136 82.9835 32.7009 82.3832C32.3879 81.7827 31.9498 81.3229 31.3865 81.0037C30.8358 80.6714 30.2099 80.5055 29.5091 80.5055C28.808 80.5055 28.1759 80.6714 27.6128 81.0037C27.0619 81.3229 26.624 81.7827 26.2985 82.3832C25.9855 82.9835 25.8291 83.6669 25.8291 84.4334C25.8291 85.1998 25.9855 85.8832 26.2985 86.4837C26.624 87.084 27.0619 87.5503 27.6128 87.8824C28.1759 88.2018 28.808 88.3614 29.5091 88.3614ZM46.1427 79.394V89.4727H44.8661V87.6333C44.5156 88.2465 44.0337 88.7254 43.4204 89.0703C42.8071 89.4026 42.106 89.5685 41.3176 89.5685C40.0284 89.5685 39.0082 89.2045 38.2571 88.4763C37.5187 87.7355 37.1495 86.6561 37.1495 85.2382V79.394H38.4825V85.104C38.4825 86.1643 38.739 86.9691 39.2523 87.5184C39.7655 88.0676 40.4977 88.3423 41.4489 88.3423C42.4879 88.3423 43.3078 88.0229 43.9085 87.3842C44.5094 86.7328 44.8097 85.8322 44.8097 84.6825V79.394H46.1427ZM54.9643 79.3175C55.8905 79.3175 56.7292 79.5345 57.4803 79.9689C58.2313 80.3904 58.8196 80.9909 59.2451 81.7701C59.6707 82.5493 59.8834 83.437 59.8834 84.4334C59.8834 85.4426 59.6707 86.3367 59.2451 87.1159C58.8196 87.8952 58.2313 88.5019 57.4803 88.9363C56.7418 89.3578 55.9031 89.5685 54.9643 89.5685C54.1633 89.5685 53.4374 89.4026 52.7865 89.0703C52.148 88.7254 51.6223 88.2272 51.2094 87.5759V93.19H49.8762V79.394H51.153V81.3868C51.5535 80.7226 52.0792 80.2116 52.7301 79.8539C53.3936 79.4963 54.1383 79.3175 54.9643 79.3175ZM54.8705 88.3614C55.559 88.3614 56.1847 88.2018 56.748 87.8824C57.3113 87.5503 57.7494 87.084 58.0623 86.4837C58.3877 85.8832 58.5505 85.1998 58.5505 84.4334C58.5505 83.6669 58.3877 82.99 58.0623 82.4023C57.7494 81.802 57.3113 81.3357 56.748 81.0037C56.1847 80.6714 55.559 80.5055 54.8705 80.5055C54.1696 80.5055 53.5375 80.6714 52.9743 81.0037C52.4235 81.3357 51.9854 81.802 51.6599 82.4023C51.347 82.99 51.1906 83.6669 51.1906 84.4334C51.1906 85.1998 51.347 85.8832 51.6599 86.4837C51.9854 87.084 52.4235 87.5503 52.9743 87.8824C53.5375 88.2018 54.1696 88.3614 54.8705 88.3614Z" fill="white"/>
<path d="M54.3544 43.4834L52.0262 41.1075C50.4741 42.6404 48.5214 43.4069 46.1684 43.4069C45.0002 43.4069 43.9488 43.211 43.0142 42.8193C42.0796 42.4276 41.3453 41.8825 40.8112 41.1842C40.2938 40.4688 40.0352 39.6599 40.0352 38.7572C40.0352 37.6671 40.3605 36.7047 41.0114 35.8702C41.6789 35.0186 42.7722 34.15 44.2908 33.2643C43.5232 32.4809 42.9807 31.7739 42.6637 31.1438C42.3467 30.5137 42.188 29.858 42.188 29.1766C42.188 27.9674 42.6137 26.9965 43.4647 26.2641C44.3326 25.5319 45.4841 25.1656 46.9193 25.1656C48.2544 25.1656 49.3143 25.4977 50.0986 26.162C50.8829 26.8261 51.2751 27.7375 51.2751 28.8956C51.2751 29.7983 50.9831 30.6074 50.3991 31.3227C49.8315 32.038 48.8803 32.7874 47.5452 33.571L51.876 37.9651C52.3767 36.9944 52.7356 35.9129 52.9524 34.7205L54.8801 35.3592C54.5797 36.9261 54.0707 38.2888 53.353 39.4469L55.7061 41.8485L54.3544 43.4834ZM46.9193 26.954C46.1349 26.954 45.5176 27.1584 45.0669 27.5671C44.633 27.9588 44.416 28.4783 44.416 29.1256C44.416 29.5854 44.5328 30.0283 44.7665 30.4541C45.0169 30.8798 45.4924 31.4589 46.1934 32.1913C47.345 31.5271 48.1377 30.9565 48.5716 30.4797C49.0221 30.0027 49.2475 29.4833 49.2475 28.9212C49.2475 28.325 49.0388 27.8482 48.6216 27.4905C48.2211 27.1328 47.6537 26.954 46.9193 26.954ZM46.3186 41.3631C48.0542 41.3631 49.4812 40.801 50.5993 39.6769L45.6176 34.6184C44.416 35.2996 43.5732 35.9383 43.0892 36.5344C42.622 37.1135 42.3883 37.7692 42.3883 38.5016C42.3883 39.3533 42.7472 40.043 43.4647 40.5711C44.1991 41.0991 45.1504 41.3631 46.3186 41.3631Z" fill="#ADCDFD"/>
<path d="M25.2811 41.3574L14.8949 60.5185L8.6631 72.4409H1.44141V36.6736V0.906494H11.4548L10.7403 47.7445L39.8219 0.906494H51.108L30.981 33.0969L62.8237 72.4409H51.108L25.2811 41.3574Z" fill="#7EACF0"/>
<path d="M34.0798 70.6726C27.8882 70.6726 22.3098 69.3015 17.3448 66.5593C12.3798 63.7576 8.46624 59.9127 5.60408 55.0245C2.80031 50.1362 1.39844 44.6818 1.39844 38.6609C1.39844 32.6402 2.80031 27.1856 5.60408 22.2974C8.46624 17.4093 12.3798 13.5941 17.3448 10.852C22.3098 8.05021 27.8882 6.64932 34.0798 6.64932C40.2129 6.64932 45.762 8.05021 50.727 10.852C55.692 13.5941 59.5764 17.4093 62.3801 22.2974C65.184 27.126 66.5857 32.5806 66.5857 38.6609C66.5857 44.7414 65.184 50.2257 62.3801 55.1138C59.5764 59.9425 55.692 63.7576 50.727 66.5593C45.762 69.3015 40.2129 70.6726 34.0798 70.6726ZM34.0798 62.7144C38.5774 62.7144 42.6077 61.6711 46.171 59.5848C49.7924 57.4983 52.6254 54.637 54.6699 51.0007C56.7727 47.3047 57.8241 43.1915 57.8241 38.6609C57.8241 34.1304 56.7727 30.0471 54.6699 26.4107C52.6254 22.7148 49.7924 19.8236 46.171 17.7371C42.6077 15.6507 38.5774 14.6075 34.0798 14.6075C29.582 14.6075 25.4932 15.6507 21.8132 17.7371C18.1918 19.8236 15.3296 22.7148 13.2268 26.4107C11.1824 30.0471 10.1602 34.1304 10.1602 38.6609C10.1602 43.1915 11.1824 47.3047 13.2268 51.0007C15.3296 54.637 18.1918 57.4983 21.8132 59.5848C25.4932 61.6711 29.582 62.7144 34.0798 62.7144Z" fill="#BDD7FF"/>
<path d="M51.2513 0.906494L8.66764 73.0082H1.39726L1.21875 0.906494H11.7629V45.6154L38.7878 0.906494H51.2513Z" fill="white"/>
</svg>
