<svg width="47" height="47" viewBox="0 0 47 47" fill="none" xmlns="http://www.w3.org/2000/svg">
<path fill-rule="evenodd" clip-rule="evenodd" d="M23.5 47C10.542 47 0 36.458 0 23.5C0 10.542 10.542 0 23.5 0C36.458 0 47 10.542 47 23.5C47 36.458 36.458 47 23.5 47ZM35.6868 31.7554C35.9765 31.7554 36.2123 31.5196 36.2123 31.2298V16.4765L24.2558 25.9713C24.0345 26.1471 23.7671 26.2349 23.4999 26.2349C23.2327 26.2349 22.9654 26.147 22.7441 25.9713L10.7876 16.4765V31.2298C10.7876 31.5196 11.0234 31.7554 11.3131 31.7554H35.6868ZM33.8545 15.2446L23.5 23.4673L13.1454 15.2446H33.8545ZM38.6434 15.7702V31.23C38.6434 32.8603 37.317 34.1866 35.6868 34.1866H11.3131C9.68283 34.1866 8.35664 32.8603 8.35664 31.23V15.7702C8.35664 14.1399 9.68292 12.8137 11.3131 12.8137H35.6868C37.317 12.8136 38.6434 14.1399 38.6434 15.7702V15.7702Z" fill="white"/>
</svg>
