<svg width="47" height="47" viewBox="0 0 47 47" fill="none" xmlns="http://www.w3.org/2000/svg">
<path d="M23.5 47C36.4818 47 47 36.4818 47 23.5C47 10.5182 36.4818 0 23.5 0C10.5182 0 0 10.5182 0 23.5C0 36.4818 10.5182 47 23.5 47ZM10.7532 22.9908L33.4111 14.2547C34.4628 13.8748 35.3812 14.5113 35.0405 16.1014L35.0424 16.0995L31.1845 34.2748C30.8986 35.5633 30.1329 35.8767 29.0617 35.2696L23.1867 30.9397L20.353 33.6696C20.0396 33.983 19.7753 34.2473 19.1682 34.2473L19.5853 28.2685L30.4736 18.4318C30.9475 18.0147 30.3679 17.7797 29.7432 18.1949L16.2875 26.6666L10.4869 24.8571C9.22767 24.4576 9.20025 23.5979 10.7532 22.9908V22.9908Z" fill="white"/>
</svg>
