<svg width="113" height="113" viewBox="0 0 113 113" fill="none" xmlns="http://www.w3.org/2000/svg">
<g filter="url(#filter0_d_1558_8)">
<path fill-rule="evenodd" clip-rule="evenodd" d="M40.0762 2H72.9238C102.902 2 110 9.09809 110 39.0762V71.9238C110 101.902 102.902 109 72.9238 109H40.0762C10.0981 109 3 101.902 3 71.9238V39.0762C3 9.09809 10.0981 2 40.0762 2Z" fill="#5B9BE3"/>
<path fill-rule="evenodd" clip-rule="evenodd" d="M88.4841 38.3574C88.982 36.7973 88.4841 35.6627 86.2793 35.6627H78.9538C77.1047 35.6627 76.2512 36.6555 75.7534 37.7192C75.7534 37.7192 71.9839 46.7961 66.721 52.682C65.014 54.3839 64.2317 54.9512 63.3071 54.9512C62.8093 54.9512 62.1692 54.3839 62.1692 52.8238V38.2865C62.1692 36.4428 61.6002 35.5918 60.0355 35.5918H48.5139C47.3759 35.5918 46.6647 36.4428 46.6647 37.2937C46.6647 39.0666 49.2962 39.492 49.5807 44.456V55.2349C49.5807 57.575 49.154 58.0005 48.2294 58.0005C45.7401 58.0005 39.6948 48.8527 36.0676 38.4283C35.3564 36.3718 34.6452 35.5918 32.796 35.5918H25.3994C23.2658 35.5918 22.9102 36.5846 22.9102 37.6483C22.9102 39.563 25.3994 49.2072 34.503 61.9717C40.5483 70.6941 49.154 75.3744 56.9062 75.3744C61.6002 75.3744 62.1692 74.3107 62.1692 72.5378V65.9428C62.1692 63.8154 62.5959 63.4609 64.0895 63.4609C65.1563 63.4609 67.0766 64.0282 71.415 68.2121C76.3935 73.176 77.2469 75.4453 80.0207 75.4453H87.3462C89.4798 75.4453 90.4755 74.3816 89.9065 72.3251C89.2664 70.2686 86.8483 67.2902 83.719 63.7445C82.0121 61.7589 79.4517 59.5606 78.6694 58.4969C77.6025 57.0786 77.887 56.5113 78.6694 55.2349C78.5982 55.2349 87.5595 42.6122 88.4841 38.3574Z" fill="white"/>
</g>
<defs>
<filter id="filter0_d_1558_8" x="0" y="0" width="113" height="113" filterUnits="userSpaceOnUse" color-interpolation-filters="sRGB">
<feFlood flood-opacity="0" result="BackgroundImageFix"/>
<feColorMatrix in="SourceAlpha" type="matrix" values="0 0 0 0 0 0 0 0 0 0 0 0 0 0 0 0 0 0 127 0" result="hardAlpha"/>
<feOffset dy="1"/>
<feGaussianBlur stdDeviation="1.5"/>
<feComposite in2="hardAlpha" operator="out"/>
<feColorMatrix type="matrix" values="0 0 0 0 0.173333 0 0 0 0 0.39629 0 0 0 0 0.65 0 0 0 1 0"/>
<feBlend mode="normal" in2="BackgroundImageFix" result="effect1_dropShadow_1558_8"/>
<feBlend mode="normal" in="SourceGraphic" in2="effect1_dropShadow_1558_8" result="shape"/>
</filter>
</defs>
</svg>
