<svg width="44" height="44" viewBox="0 0 44 44" fill="none" xmlns="http://www.w3.org/2000/svg">
<g filter="url(#filter0_d_1347_227)">
<path fill-rule="evenodd" clip-rule="evenodd" d="M16.1673 2H27.8327C38.4792 2 41 4.52082 41 15.1673V26.8327C41 37.4792 38.4792 40 27.8327 40H16.1673C5.52082 40 3 37.4792 3 26.8327V15.1673C3 4.52082 5.52082 2 16.1673 2Z" fill="#5B9BE3"/>
<path fill-rule="evenodd" clip-rule="evenodd" d="M33.3583 14.9119C33.5351 14.3578 33.3583 13.9549 32.5753 13.9549H29.9737C29.317 13.9549 29.0139 14.3075 28.8371 14.6852C28.8371 14.6852 27.4984 17.9088 25.6293 19.9991C25.0231 20.6035 24.7453 20.805 24.4169 20.805C24.2401 20.805 24.0128 20.6035 24.0128 20.0495V14.8867C24.0128 14.2319 23.8107 13.9297 23.255 13.9297H19.1632C18.7591 13.9297 18.5065 14.2319 18.5065 14.5341C18.5065 15.1637 19.4411 15.3148 19.5421 17.0777V20.9057C19.5421 21.7368 19.3905 21.8879 19.0622 21.8879C18.1782 21.8879 16.0312 18.6392 14.7431 14.9371C14.4905 14.2067 14.2379 13.9297 13.5812 13.9297H10.9543C10.1966 13.9297 10.0703 14.2823 10.0703 14.66C10.0703 15.34 10.9543 18.7651 14.1874 23.2982C16.3343 26.3959 19.3905 28.0581 22.1437 28.0581C23.8107 28.0581 24.0128 27.6803 24.0128 27.0507V24.7086C24.0128 23.953 24.1643 23.8271 24.6947 23.8271C25.0736 23.8271 25.7556 24.0286 27.2963 25.5145C29.0644 27.2774 29.3675 28.0833 30.3525 28.0833H32.9541C33.7119 28.0833 34.0655 27.7055 33.8634 26.9752C33.6361 26.2448 32.7773 25.1871 31.666 23.9279C31.0598 23.2227 30.1505 22.442 29.8726 22.0642C29.4938 21.5605 29.5948 21.3591 29.8726 20.9057C29.8474 20.9057 33.0299 16.4229 33.3583 14.9119Z" fill="white"/>
</g>
<defs>
<filter id="filter0_d_1347_227" x="0" y="0" width="44" height="44" filterUnits="userSpaceOnUse" color-interpolation-filters="sRGB">
<feFlood flood-opacity="0" result="BackgroundImageFix"/>
<feColorMatrix in="SourceAlpha" type="matrix" values="0 0 0 0 0 0 0 0 0 0 0 0 0 0 0 0 0 0 127 0" result="hardAlpha"/>
<feOffset dy="1"/>
<feGaussianBlur stdDeviation="1.5"/>
<feComposite in2="hardAlpha" operator="out"/>
<feColorMatrix type="matrix" values="0 0 0 0 0.173333 0 0 0 0 0.39629 0 0 0 0 0.65 0 0 0 1 0"/>
<feBlend mode="normal" in2="BackgroundImageFix" result="effect1_dropShadow_1347_227"/>
<feBlend mode="normal" in="SourceGraphic" in2="effect1_dropShadow_1347_227" result="shape"/>
</filter>
</defs>
</svg>
