<svg width="47" height="47" viewBox="0 0 47 47" fill="none" xmlns="http://www.w3.org/2000/svg">
<path d="M23.5 0C18.8521 0 14.3087 1.37825 10.4441 3.96046C6.57955 6.54268 3.5675 10.2129 1.78884 14.5069C0.0101823 18.801 -0.455196 23.5261 0.451556 28.0846C1.35831 32.6432 3.59647 36.8305 6.883 40.117C10.1695 43.4035 14.3568 45.6417 18.9154 46.5484C23.4739 47.4552 28.199 46.9898 32.4931 45.2112C36.7871 43.4325 40.4573 40.4204 43.0395 36.5559C45.6217 32.6913 47 28.1479 47 23.5C47 17.2674 44.5241 11.2901 40.117 6.88299C35.7099 2.47589 29.7326 0 23.5 0V0ZM37.0445 32.697C36.3609 32.7932 33.0175 32.697 32.8439 32.697C31.9796 32.7084 31.1457 32.3783 30.5233 31.7784C29.8183 31.0974 29.1881 30.3497 28.4991 29.642C28.2961 29.4248 28.0755 29.2248 27.8395 29.0439C27.2894 28.6219 26.7446 28.7154 26.4856 29.367C26.2833 30.0683 26.1422 30.7857 26.0636 31.5114C26.0182 32.1683 25.6017 32.5795 24.8646 32.6249C24.408 32.649 23.9513 32.6597 23.5 32.6463C21.8551 32.6373 20.2359 32.2373 18.776 31.4793C17.1959 30.5997 15.8191 29.3968 14.7356 27.949C12.9544 25.6737 11.531 23.1742 10.2599 20.5972C10.1931 20.4664 8.88995 17.6944 8.8579 17.5636C8.7404 17.1283 8.85791 16.709 9.21842 16.5622C9.44808 16.474 13.7422 16.5622 13.8143 16.5622C14.1337 16.56 14.4456 16.6595 14.7048 16.8462C14.9641 17.0329 15.1572 17.2973 15.2563 17.601C16.0508 19.6332 17.1376 21.5386 18.4822 23.257C18.6706 23.4859 18.8909 23.6864 19.1365 23.8525C19.4863 24.0928 19.8174 24.0101 19.9617 23.6041C20.1328 23.0447 20.2332 22.4661 20.2607 21.8817C20.2848 20.7227 20.2607 19.9616 20.1967 18.8027C20.1539 18.0603 19.8922 17.4114 18.7973 17.2004C18.4609 17.139 18.4315 16.8612 18.6478 16.5835C19.0991 16.0094 19.716 15.9159 20.4076 15.8812C21.4384 15.8224 22.4692 15.8625 23.5 15.8812H23.7243C24.1729 15.8796 24.6205 15.9252 25.0595 16.0174C25.3193 16.0704 25.555 16.2059 25.7316 16.4036C25.9082 16.6014 26.0162 16.8509 26.0396 17.1149C26.0926 17.4073 26.115 17.7045 26.1064 18.0015C26.0797 19.2647 26.0182 20.5305 26.0049 21.7936C25.9925 22.2948 26.0382 22.7957 26.1411 23.2864C26.288 23.9593 26.7499 24.1276 27.2093 23.6415C27.8045 23.0146 28.3501 22.3423 28.8409 21.6307C29.7109 20.3336 30.4278 18.9401 30.9773 17.4781C31.2764 16.7277 31.5114 16.5622 32.3125 16.5622H36.8683C37.1392 16.5574 37.4093 16.5934 37.6694 16.669C37.7615 16.6932 37.8476 16.7361 37.9223 16.7951C37.9971 16.8542 38.0588 16.928 38.1037 17.012C38.1485 17.0959 38.1756 17.1883 38.1831 17.2832C38.1907 17.3781 38.1785 17.4736 38.1474 17.5636C37.9231 18.5623 37.3837 19.4142 36.8122 20.234C35.8856 21.5452 34.9082 22.8244 33.9602 24.1195C33.8461 24.287 33.7418 24.4609 33.6477 24.6403C33.2899 25.2865 33.3166 25.647 33.8347 26.1811C34.6625 27.033 35.5464 27.8288 36.3449 28.7047C36.9305 29.342 37.4595 30.0291 37.9258 30.7583C38.4946 31.6769 38.1341 32.5422 37.0445 32.697V32.697Z" fill="white"/>
</svg>
