<svg width="39" height="57" viewBox="0 0 39 57" fill="none" xmlns="http://www.w3.org/2000/svg">
<path d="M11.2741 50.266V54.424C11.2741 55.228 11.0761 55.822 10.6801 56.206C10.2901 56.596 9.69906 56.791 8.90706 56.791C8.46906 56.791 8.05206 56.725 7.65606 56.593C7.26606 56.467 6.94806 56.29 6.70206 56.062L7.02606 55.576C7.25406 55.78 7.53006 55.939 7.85406 56.053C8.18406 56.167 8.52906 56.224 8.88906 56.224C9.48906 56.224 9.93006 56.083 10.2121 55.801C10.4941 55.525 10.6351 55.093 10.6351 54.505V53.902C10.4371 54.202 10.1761 54.43 9.85206 54.586C9.53406 54.742 9.18006 54.82 8.79006 54.82C8.34606 54.82 7.94106 54.724 7.57506 54.532C7.21506 54.334 6.93006 54.061 6.72006 53.713C6.51606 53.359 6.41406 52.96 6.41406 52.516C6.41406 52.072 6.51606 51.676 6.72006 51.328C6.93006 50.98 7.21506 50.71 7.57506 50.518C7.93506 50.326 8.34006 50.23 8.79006 50.23C9.19206 50.23 9.55506 50.311 9.87906 50.473C10.2031 50.635 10.4641 50.869 10.6621 51.175V50.266H11.2741ZM8.85306 54.253C9.19506 54.253 9.50406 54.181 9.78006 54.037C10.0561 53.887 10.2691 53.68 10.4191 53.416C10.5751 53.152 10.6531 52.852 10.6531 52.516C10.6531 52.18 10.5751 51.883 10.4191 51.625C10.2691 51.361 10.0561 51.157 9.78006 51.013C9.51006 50.863 9.20106 50.788 8.85306 50.788C8.51106 50.788 8.20206 50.86 7.92606 51.004C7.65606 51.148 7.44306 51.352 7.28706 51.616C7.13706 51.88 7.06206 52.18 7.06206 52.516C7.06206 52.852 7.13706 53.152 7.28706 53.416C7.44306 53.68 7.65606 53.887 7.92606 54.037C8.20206 54.181 8.51106 54.253 8.85306 54.253ZM13.673 51.193C13.823 50.875 14.045 50.635 14.339 50.473C14.639 50.311 15.008 50.23 15.446 50.23V50.851L15.293 50.842C14.795 50.842 14.405 50.995 14.123 51.301C13.841 51.607 13.7 52.036 13.7 52.588V55H13.061V50.266H13.673V51.193ZM18.4941 55.045C18.0381 55.045 17.6271 54.943 17.2611 54.739C16.8951 54.529 16.6071 54.241 16.3971 53.875C16.1871 53.509 16.0821 53.095 16.0821 52.633C16.0821 52.171 16.1871 51.757 16.3971 51.391C16.6071 51.025 16.8951 50.74 17.2611 50.536C17.6271 50.332 18.0381 50.23 18.4941 50.23C18.9501 50.23 19.3611 50.332 19.7271 50.536C20.0931 50.74 20.3781 51.025 20.5821 51.391C20.7921 51.757 20.8971 52.171 20.8971 52.633C20.8971 53.095 20.7921 53.509 20.5821 53.875C20.3781 54.241 20.0931 54.529 19.7271 54.739C19.3611 54.943 18.9501 55.045 18.4941 55.045ZM18.4941 54.478C18.8301 54.478 19.1301 54.403 19.3941 54.253C19.6641 54.097 19.8741 53.878 20.0241 53.596C20.1741 53.314 20.2491 52.993 20.2491 52.633C20.2491 52.273 20.1741 51.952 20.0241 51.67C19.8741 51.388 19.6641 51.172 19.3941 51.022C19.1301 50.866 18.8301 50.788 18.4941 50.788C18.1581 50.788 17.8551 50.866 17.5851 51.022C17.3211 51.172 17.1111 51.388 16.9551 51.67C16.8051 51.952 16.7301 52.273 16.7301 52.633C16.7301 52.993 16.8051 53.314 16.9551 53.596C17.1111 53.878 17.3211 54.097 17.5851 54.253C17.8551 54.403 18.1581 54.478 18.4941 54.478ZM26.4676 50.266V55H25.8556V54.136C25.6876 54.424 25.4566 54.649 25.1626 54.811C24.8686 54.967 24.5326 55.045 24.1546 55.045C23.5366 55.045 23.0476 54.874 22.6876 54.532C22.3336 54.184 22.1566 53.677 22.1566 53.011V50.266H22.7956V52.948C22.7956 53.446 22.9186 53.824 23.1646 54.082C23.4106 54.34 23.7616 54.469 24.2176 54.469C24.7156 54.469 25.1086 54.319 25.3966 54.019C25.6846 53.713 25.8286 53.29 25.8286 52.75V50.266H26.4676ZM30.6963 50.23C31.1403 50.23 31.5423 50.332 31.9023 50.536C32.2623 50.734 32.5443 51.016 32.7483 51.382C32.9523 51.748 33.0543 52.165 33.0543 52.633C33.0543 53.107 32.9523 53.527 32.7483 53.893C32.5443 54.259 32.2623 54.544 31.9023 54.748C31.5483 54.946 31.1463 55.045 30.6963 55.045C30.3123 55.045 29.9643 54.967 29.6523 54.811C29.3463 54.649 29.0943 54.415 28.8963 54.109V56.746H28.2573V50.266H28.8693V51.202C29.0613 50.89 29.3133 50.65 29.6253 50.482C29.9433 50.314 30.3003 50.23 30.6963 50.23ZM30.6513 54.478C30.9813 54.478 31.2813 54.403 31.5513 54.253C31.8213 54.097 32.0313 53.878 32.1813 53.596C32.3373 53.314 32.4153 52.993 32.4153 52.633C32.4153 52.273 32.3373 51.955 32.1813 51.679C32.0313 51.397 31.8213 51.178 31.5513 51.022C31.2813 50.866 30.9813 50.788 30.6513 50.788C30.3153 50.788 30.0123 50.866 29.7423 51.022C29.4783 51.178 29.2683 51.397 29.1123 51.679C28.9623 51.955 28.8873 52.273 28.8873 52.633C28.8873 52.993 28.9623 53.314 29.1123 53.596C29.2683 53.878 29.4783 54.097 29.7423 54.253C30.0123 54.403 30.3153 54.478 30.6513 54.478Z" fill="white"/>
<path d="M30.4031 33.3987L29.2871 32.2827C28.5431 33.0027 27.6071 33.3627 26.4791 33.3627C25.9191 33.3627 25.4151 33.2707 24.9671 33.0867C24.5191 32.9027 24.1671 32.6467 23.9111 32.3187C23.6631 31.9827 23.5391 31.6027 23.5391 31.1787C23.5391 30.6667 23.6951 30.2147 24.0071 29.8227C24.3271 29.4227 24.8511 29.0147 25.5791 28.5987C25.2111 28.2307 24.9511 27.8987 24.7991 27.6027C24.6471 27.3067 24.5711 26.9987 24.5711 26.6787C24.5711 26.1107 24.7751 25.6547 25.1831 25.3107C25.5991 24.9667 26.1511 24.7947 26.8391 24.7947C27.4791 24.7947 27.9871 24.9507 28.3631 25.2627C28.7391 25.5747 28.9271 26.0027 28.9271 26.5467C28.9271 26.9707 28.7871 27.3507 28.5071 27.6867C28.2351 28.0227 27.7791 28.3747 27.1391 28.7427L29.2151 30.8067C29.4551 30.3507 29.6271 29.8427 29.7311 29.2827L30.6551 29.5827C30.5111 30.3187 30.2671 30.9587 29.9231 31.5027L31.0511 32.6307L30.4031 33.3987ZM26.8391 25.6347C26.4631 25.6347 26.1671 25.7307 25.9511 25.9227C25.7431 26.1067 25.6391 26.3507 25.6391 26.6547C25.6391 26.8707 25.6951 27.0787 25.8071 27.2787C25.9271 27.4787 26.1551 27.7507 26.4911 28.0947C27.0431 27.7827 27.4231 27.5147 27.6311 27.2907C27.8471 27.0667 27.9551 26.8227 27.9551 26.5587C27.9551 26.2787 27.8551 26.0547 27.6551 25.8867C27.4631 25.7187 27.1911 25.6347 26.8391 25.6347ZM26.5511 32.4027C27.3831 32.4027 28.0671 32.1387 28.6031 31.6107L26.2151 29.2347C25.6391 29.5547 25.2351 29.8547 25.0031 30.1347C24.7791 30.4067 24.6671 30.7147 24.6671 31.0587C24.6671 31.4587 24.8391 31.7827 25.1831 32.0307C25.5351 32.2787 25.9911 32.4027 26.5511 32.4027Z" fill="white"/>
<path d="M15.9831 32.072L9.83906 38.312V47H5.03906V13.4H9.83906V32.168L28.0791 13.4H33.5511L19.1991 28.52L34.4631 47H28.8471L15.9831 32.072Z" fill="white"/>
<path d="M20.6816 46.1694C17.7136 46.1694 15.0396 45.5254 12.6596 44.2374C10.2796 42.9214 8.40363 41.1154 7.03163 38.8194C5.68763 36.5234 5.01562 33.9614 5.01562 31.1334C5.01562 28.3054 5.68763 25.7434 7.03163 23.4474C8.40363 21.1514 10.2796 19.3594 12.6596 18.0714C15.0396 16.7554 17.7136 16.0974 20.6816 16.0974C23.6216 16.0974 26.2816 16.7554 28.6616 18.0714C31.0416 19.3594 32.9036 21.1514 34.2476 23.4474C35.5916 25.7154 36.2636 28.2774 36.2636 31.1334C36.2636 33.9894 35.5916 36.5654 34.2476 38.8614C32.9036 41.1294 31.0416 42.9214 28.6616 44.2374C26.2816 45.5254 23.6216 46.1694 20.6816 46.1694ZM20.6816 42.4314C22.8376 42.4314 24.7696 41.9414 26.4776 40.9614C28.2136 39.9814 29.5716 38.6374 30.5516 36.9294C31.5596 35.1934 32.0636 33.2614 32.0636 31.1334C32.0636 29.0054 31.5596 27.0874 30.5516 25.3794C29.5716 23.6434 28.2136 22.2854 26.4776 21.3054C24.7696 20.3254 22.8376 19.8354 20.6816 19.8354C18.5256 19.8354 16.5656 20.3254 14.8016 21.3054C13.0656 22.2854 11.6936 23.6434 10.6856 25.3794C9.70563 27.0874 9.21562 29.0054 9.21562 31.1334C9.21562 33.2614 9.70563 35.1934 10.6856 36.9294C11.6936 38.6374 13.0656 39.9814 14.8016 40.9614C16.5656 41.9414 18.5256 42.4314 20.6816 42.4314Z" fill="white"/>
</svg>
