<svg width="32" height="44" viewBox="0 0 32 44" fill="none" xmlns="http://www.w3.org/2000/svg">
<path d="M6.28311 36.866V41.024C6.28311 41.828 6.08427 42.422 5.68657 42.806C5.29491 43.196 4.70138 43.391 3.906 43.391C3.46613 43.391 3.04734 43.325 2.64965 43.193C2.25798 43.067 1.93863 42.89 1.69157 42.662L2.01696 42.176C2.24593 42.38 2.52311 42.539 2.8485 42.653C3.17991 42.767 3.52638 42.824 3.88792 42.824C4.49048 42.824 4.93337 42.683 5.21657 42.401C5.49978 42.125 5.64138 41.693 5.64138 41.105V40.502C5.44254 40.802 5.18042 41.03 4.85504 41.186C4.53568 41.342 4.18016 41.42 3.7885 41.42C3.3426 41.42 2.93587 41.324 2.56831 41.132C2.20677 40.934 1.92055 40.661 1.70965 40.313C1.50478 39.959 1.40234 39.56 1.40234 39.116C1.40234 38.672 1.50478 38.276 1.70965 37.928C1.92055 37.58 2.20677 37.31 2.56831 37.118C2.92984 36.926 3.33657 36.83 3.7885 36.83C4.19222 36.83 4.55677 36.911 4.88215 37.073C5.20754 37.235 5.46965 37.469 5.6685 37.775V36.866H6.28311ZM3.85177 40.853C4.19523 40.853 4.50555 40.781 4.78273 40.637C5.05991 40.487 5.27382 40.28 5.42446 40.016C5.58113 39.752 5.65946 39.452 5.65946 39.116C5.65946 38.78 5.58113 38.483 5.42446 38.225C5.27382 37.961 5.05991 37.757 4.78273 37.613C4.51157 37.463 4.20125 37.388 3.85177 37.388C3.5083 37.388 3.19798 37.46 2.92081 37.604C2.64965 37.748 2.43574 37.952 2.27907 38.216C2.12843 38.48 2.05311 38.78 2.05311 39.116C2.05311 39.452 2.12843 39.752 2.27907 40.016C2.43574 40.28 2.64965 40.487 2.92081 40.637C3.19798 40.781 3.5083 40.853 3.85177 40.853ZM8.69227 37.793C8.84291 37.475 9.06585 37.235 9.36111 37.073C9.66239 36.911 10.033 36.83 10.4728 36.83V37.451L10.3192 37.442C9.81906 37.442 9.42739 37.595 9.14419 37.901C8.86098 38.207 8.71938 38.636 8.71938 39.188V41.6H8.07765V36.866H8.69227V37.793ZM13.534 41.645C13.076 41.645 12.6633 41.543 12.2957 41.339C11.9281 41.129 11.6389 40.841 11.428 40.475C11.2171 40.109 11.1117 39.695 11.1117 39.233C11.1117 38.771 11.2171 38.357 11.428 37.991C11.6389 37.625 11.9281 37.34 12.2957 37.136C12.6633 36.932 13.076 36.83 13.534 36.83C13.9919 36.83 14.4047 36.932 14.7722 37.136C15.1398 37.34 15.426 37.625 15.6309 37.991C15.8418 38.357 15.9472 38.771 15.9472 39.233C15.9472 39.695 15.8418 40.109 15.6309 40.475C15.426 40.841 15.1398 41.129 14.7722 41.339C14.4047 41.543 13.9919 41.645 13.534 41.645ZM13.534 41.078C13.8714 41.078 14.1727 41.003 14.4378 40.853C14.709 40.697 14.9199 40.478 15.0705 40.196C15.2211 39.914 15.2965 39.593 15.2965 39.233C15.2965 38.873 15.2211 38.552 15.0705 38.27C14.9199 37.988 14.709 37.772 14.4378 37.622C14.1727 37.466 13.8714 37.388 13.534 37.388C13.1965 37.388 12.8922 37.466 12.6211 37.622C12.356 37.772 12.1451 37.988 11.9884 38.27C11.8378 38.552 11.7624 38.873 11.7624 39.233C11.7624 39.593 11.8378 39.914 11.9884 40.196C12.1451 40.478 12.356 40.697 12.6211 40.853C12.8922 41.003 13.1965 41.078 13.534 41.078ZM21.5415 36.866V41.6H20.9269V40.736C20.7582 41.024 20.5262 41.249 20.231 41.411C19.9357 41.567 19.5983 41.645 19.2187 41.645C18.598 41.645 18.1069 41.474 17.7454 41.132C17.3899 40.784 17.2121 40.277 17.2121 39.611V36.866H17.8539V39.548C17.8539 40.046 17.9774 40.424 18.2244 40.682C18.4715 40.94 18.824 41.069 19.2819 41.069C19.7821 41.069 20.1767 40.919 20.466 40.619C20.7552 40.313 20.8998 39.89 20.8998 39.35V36.866H21.5415ZM25.7883 36.83C26.2342 36.83 26.6379 36.932 26.9995 37.136C27.361 37.334 27.6442 37.616 27.8491 37.982C28.054 38.348 28.1564 38.765 28.1564 39.233C28.1564 39.707 28.054 40.127 27.8491 40.493C27.6442 40.859 27.361 41.144 26.9995 41.348C26.644 41.546 26.2402 41.645 25.7883 41.645C25.4027 41.645 25.0532 41.567 24.7399 41.411C24.4325 41.249 24.1795 41.015 23.9806 40.709V43.346H23.3389V36.866H23.9535V37.802C24.1463 37.49 24.3994 37.25 24.7127 37.082C25.0321 36.914 25.3906 36.83 25.7883 36.83ZM25.7431 41.078C26.0745 41.078 26.3758 41.003 26.647 40.853C26.9181 40.697 27.129 40.478 27.2797 40.196C27.4363 39.914 27.5147 39.593 27.5147 39.233C27.5147 38.873 27.4363 38.555 27.2797 38.279C27.129 37.997 26.9181 37.778 26.647 37.622C26.3758 37.466 26.0745 37.388 25.7431 37.388C25.4057 37.388 25.1014 37.466 24.8302 37.622C24.5651 37.778 24.3542 37.997 24.1975 38.279C24.0469 38.555 23.9716 38.873 23.9716 39.233C23.9716 39.593 24.0469 39.914 24.1975 40.196C24.3542 40.478 24.5651 40.697 24.8302 40.853C25.1014 41.003 25.4057 41.078 25.7431 41.078Z" fill="black"/>
<path d="M25.4949 19.9987L24.3741 18.8827C23.6269 19.6027 22.6869 19.9627 21.5541 19.9627C20.9917 19.9627 20.4856 19.8707 20.0357 19.6867C19.5858 19.5027 19.2322 19.2467 18.9752 18.9187C18.7261 18.5827 18.6016 18.2027 18.6016 17.7787C18.6016 17.2667 18.7582 16.8147 19.0716 16.4227C19.3929 16.0227 19.9192 15.6147 20.6503 15.1987C20.2807 14.8307 20.0196 14.4987 19.8669 14.2027C19.7143 13.9067 19.638 13.5987 19.638 13.2787C19.638 12.7107 19.8428 12.2547 20.2526 11.9107C20.6704 11.5667 21.2247 11.3947 21.9157 11.3947C22.5584 11.3947 23.0686 11.5507 23.4462 11.8627C23.8238 12.1747 24.0126 12.6027 24.0126 13.1467C24.0126 13.5707 23.872 13.9507 23.5908 14.2867C23.3176 14.6227 22.8597 14.9747 22.2169 15.3427L24.3018 17.4067C24.5428 16.9507 24.7156 16.4427 24.82 15.8827L25.748 16.1827C25.6034 16.9187 25.3583 17.5587 25.0128 18.1027L26.1457 19.2307L25.4949 19.9987ZM21.9157 12.2347C21.5381 12.2347 21.2408 12.3307 21.0239 12.5227C20.815 12.7067 20.7105 12.9507 20.7105 13.2547C20.7105 13.4707 20.7668 13.6787 20.8793 13.8787C20.9998 14.0787 21.2287 14.3507 21.5662 14.6947C22.1205 14.3827 22.5022 14.1147 22.711 13.8907C22.928 13.6667 23.0364 13.4227 23.0364 13.1587C23.0364 12.8787 22.936 12.6547 22.7352 12.4867C22.5423 12.3187 22.2692 12.2347 21.9157 12.2347ZM21.6264 19.0027C22.462 19.0027 23.1489 18.7387 23.6872 18.2107L21.289 15.8347C20.7105 16.1547 20.3048 16.4547 20.0718 16.7347C19.8469 17.0067 19.7344 17.3147 19.7344 17.6587C19.7344 18.0587 19.9071 18.3827 20.2526 18.6307C20.6061 18.8787 21.064 19.0027 21.6264 19.0027Z" fill="black"/>
<path d="M11.0142 18.672L4.84395 24.912V33.6H0.0234375V0H4.84395V18.768L23.1619 0H28.6573L14.244 15.12L29.5732 33.6H23.9332L11.0142 18.672Z" fill="black"/>
<path d="M15.7329 32.7694C12.7523 32.7694 10.0668 32.1254 7.67667 30.8374C5.2865 29.5214 3.40248 27.7154 2.02462 25.4194C0.674872 23.1234 0 20.5614 0 17.7334C0 14.9054 0.674872 12.3434 2.02462 10.0474C3.40248 7.75139 5.2865 5.95939 7.67667 4.67139C10.0668 3.35539 12.7523 2.69739 15.7329 2.69739C18.6855 2.69739 21.3569 3.35539 23.7471 4.67139C26.1372 5.95939 28.0072 7.75139 29.3569 10.0474C30.7067 12.3154 31.3815 14.8774 31.3815 17.7334C31.3815 20.5894 30.7067 23.1654 29.3569 25.4614C28.0072 27.7294 26.1372 29.5214 23.7471 30.8374C21.3569 32.1254 18.6855 32.7694 15.7329 32.7694ZM15.7329 29.0314C17.8982 29.0314 19.8384 28.5414 21.5537 27.5614C23.2971 26.5814 24.6609 25.2374 25.6451 23.5294C26.6574 21.7934 27.1636 19.8614 27.1636 17.7334C27.1636 15.6054 26.6574 13.6874 25.6451 11.9794C24.6609 10.2434 23.2971 8.88539 21.5537 7.90539C19.8384 6.92539 17.8982 6.43539 15.7329 6.43539C13.5677 6.43539 11.5994 6.92539 9.82782 7.90539C8.0844 8.88539 6.70654 10.2434 5.69423 11.9794C4.71004 13.6874 4.21795 15.6054 4.21795 17.7334C4.21795 19.8614 4.71004 21.7934 5.69423 23.5294C6.70654 25.2374 8.0844 26.5814 9.82782 27.5614C11.5994 28.5414 13.5677 29.0314 15.7329 29.0314Z" fill="black"/>
</svg>
