<svg width="42" height="59" viewBox="0 0 42 59" fill="none" xmlns="http://www.w3.org/2000/svg">
<path d="M9.05475 49.8324V55.3887C9.05475 56.4631 8.79582 57.2569 8.27796 57.7701C7.76795 58.2912 6.99508 58.5517 5.95937 58.5517C5.38658 58.5517 4.84127 58.4635 4.32341 58.2871C3.8134 58.1188 3.39755 57.8823 3.07585 57.5776L3.49954 56.9282C3.7977 57.2007 4.15864 57.4132 4.58233 57.5656C5.01389 57.7179 5.46505 57.7941 5.93583 57.7941C6.72046 57.7941 7.29716 57.6057 7.66594 57.2288C8.03472 56.86 8.21912 56.2828 8.21912 55.497V54.6912C7.96018 55.0921 7.61887 55.3967 7.19516 55.6053C6.77931 55.8137 6.31638 55.9179 5.80637 55.9179C5.22573 55.9179 4.69611 55.7896 4.21748 55.5331C3.7467 55.2685 3.37401 54.9037 3.09938 54.4387C2.8326 53.9656 2.69922 53.4325 2.69922 52.8391C2.69922 52.2458 2.8326 51.7167 3.09938 51.2516C3.37401 50.7866 3.7467 50.4258 4.21748 50.1692C4.68827 49.9127 5.21789 49.7844 5.80637 49.7844C6.33207 49.7844 6.80677 49.8927 7.23048 50.1091C7.65417 50.3256 7.99549 50.6383 8.25443 51.0471V49.8324H9.05475ZM5.88875 55.1602C6.33599 55.1602 6.74008 55.064 7.10101 54.8716C7.46194 54.6711 7.74049 54.3946 7.93664 54.0418C8.14065 53.689 8.24266 53.2881 8.24266 52.8391C8.24266 52.3901 8.14065 51.9933 7.93664 51.6485C7.74049 51.2957 7.46194 51.0231 7.10101 50.8307C6.74793 50.6303 6.34384 50.5301 5.88875 50.5301C5.44151 50.5301 5.03742 50.6262 4.6765 50.8187C4.32341 51.0111 4.04487 51.2837 3.84086 51.6365C3.6447 51.9893 3.54663 52.3901 3.54663 52.8391C3.54663 53.2881 3.6447 53.689 3.84086 54.0418C4.04487 54.3946 4.32341 54.6711 4.6765 54.8716C5.03742 55.064 5.44151 55.1602 5.88875 55.1602ZM12.1918 51.0712C12.388 50.6462 12.6783 50.3256 13.0627 50.1091C13.4551 49.8927 13.9377 49.7844 14.5104 49.7844V50.6142L14.3104 50.6022C13.6591 50.6022 13.1491 50.8066 12.7803 51.2156C12.4115 51.6244 12.2272 52.1977 12.2272 52.9353V56.1585H11.3916V49.8324H12.1918V51.0712ZM18.4965 56.2186C17.9002 56.2186 17.3627 56.0823 16.884 55.8096C16.4054 55.5291 16.0289 55.1443 15.7542 54.6552C15.4796 54.1661 15.3423 53.6128 15.3423 52.9954C15.3423 52.3781 15.4796 51.8249 15.7542 51.3358C16.0289 50.8467 16.4054 50.4659 16.884 50.1933C17.3627 49.9206 17.9002 49.7844 18.4965 49.7844C19.0928 49.7844 19.6303 49.9206 20.1089 50.1933C20.5875 50.4659 20.9603 50.8467 21.227 51.3358C21.5017 51.8249 21.6389 52.3781 21.6389 52.9954C21.6389 53.6128 21.5017 54.1661 21.227 54.6552C20.9603 55.1443 20.5875 55.5291 20.1089 55.8096C19.6303 56.0823 19.0928 56.2186 18.4965 56.2186ZM18.4965 55.4609C18.9359 55.4609 19.3282 55.3607 19.6734 55.1602C20.0266 54.9518 20.3012 54.6591 20.4974 54.2824C20.6934 53.9055 20.7916 53.4765 20.7916 52.9954C20.7916 52.5144 20.6934 52.0854 20.4974 51.7086C20.3012 51.3317 20.0266 51.0432 19.6734 50.8428C19.3282 50.6342 18.9359 50.5301 18.4965 50.5301C18.0571 50.5301 17.6608 50.6342 17.3078 50.8428C16.9625 51.0432 16.688 51.3317 16.4839 51.7086C16.2877 52.0854 16.1897 52.5144 16.1897 52.9954C16.1897 53.4765 16.2877 53.9055 16.4839 54.2824C16.688 54.6591 16.9625 54.9518 17.3078 55.1602C17.6608 55.3607 18.0571 55.4609 18.4965 55.4609ZM28.9236 49.8324V56.1585H28.1233V55.0039C27.9036 55.3888 27.6015 55.6894 27.2171 55.9059C26.8326 56.1144 26.3931 56.2186 25.8989 56.2186C25.0907 56.2186 24.4512 55.9901 23.9804 55.5331C23.5175 55.0681 23.2861 54.3906 23.2861 53.5006V49.8324H24.1217V53.4164C24.1217 54.0819 24.2825 54.587 24.6042 54.9318C24.9259 55.2765 25.3849 55.4489 25.9812 55.4489C26.6325 55.4489 27.1465 55.2484 27.523 54.8475C27.8997 54.4387 28.088 53.8734 28.088 53.1518V49.8324H28.9236ZM34.4536 49.7844C35.0342 49.7844 35.5599 49.9206 36.0307 50.1933C36.5015 50.4578 36.8703 50.8347 37.137 51.3238C37.4038 51.8129 37.5372 52.37 37.5372 52.9954C37.5372 53.6289 37.4038 54.1901 37.137 54.6792C36.8703 55.1683 36.5015 55.5491 36.0307 55.8217C35.5678 56.0863 35.0421 56.2186 34.4536 56.2186C33.9514 56.2186 33.4964 56.1144 33.0883 55.9059C32.6881 55.6894 32.3586 55.3767 32.0997 54.9679V58.4916H31.264V49.8324H32.0644V51.0832C32.3154 50.6664 32.645 50.3456 33.053 50.1211C33.4689 49.8966 33.9357 49.7844 34.4536 49.7844ZM34.3948 55.4609C34.8263 55.4609 35.2186 55.3607 35.5717 55.1602C35.9248 54.9518 36.1994 54.6591 36.3956 54.2824C36.5995 53.9055 36.7016 53.4765 36.7016 52.9954C36.7016 52.5144 36.5995 52.0895 36.3956 51.7206C36.1994 51.3439 35.9248 51.0512 35.5717 50.8428C35.2186 50.6342 34.8263 50.5301 34.3948 50.5301C33.9554 50.5301 33.5592 50.6342 33.206 50.8428C32.8608 51.0512 32.5862 51.3439 32.3821 51.7206C32.186 52.0895 32.0879 52.5144 32.0879 52.9954C32.0879 53.4765 32.186 53.9055 32.3821 54.2824C32.5862 54.6591 32.8608 54.9518 33.206 55.1602C33.5592 55.3607 33.9554 55.4609 34.3948 55.4609Z" fill="white"/>
<path d="M34.0739 27.2928L32.6144 25.8015C31.6415 26.7636 30.4174 27.2448 28.9424 27.2448C28.2101 27.2448 27.551 27.1218 26.9651 26.8759C26.3793 26.63 25.9189 26.288 25.5841 25.8496C25.2598 25.4006 25.0977 24.8929 25.0977 24.3263C25.0977 23.6421 25.3016 23.0381 25.7096 22.5143C26.1281 21.9797 26.8134 21.4346 27.7654 20.8787C27.2842 20.3869 26.9441 19.9432 26.7454 19.5477C26.5467 19.1522 26.4472 18.7406 26.4472 18.313C26.4472 17.554 26.714 16.9446 27.2475 16.4849C27.7916 16.0253 28.5134 15.7954 29.4131 15.7954C30.25 15.7954 30.9145 16.0038 31.4061 16.4208C31.8978 16.8377 32.1436 17.4097 32.1436 18.1366C32.1436 18.7032 31.9606 19.211 31.5944 19.66C31.2387 20.1089 30.6424 20.5793 29.8054 21.0711L32.5203 23.8292C32.8342 23.2198 33.0591 22.541 33.195 21.7927L34.4034 22.1936C34.2151 23.177 33.896 24.0323 33.4461 24.7592L34.9212 26.2666L34.0739 27.2928ZM29.4131 16.9179C28.9214 16.9179 28.5344 17.0462 28.2519 17.3028C27.9799 17.5486 27.8438 17.8747 27.8438 18.2809C27.8438 18.5695 27.9171 18.8475 28.0636 19.1148C28.2205 19.382 28.5186 19.7455 28.9581 20.2052C29.68 19.7883 30.1769 19.4301 30.4489 19.1308C30.7313 18.8315 30.8726 18.5054 30.8726 18.1527C30.8726 17.7784 30.7417 17.4791 30.4802 17.2546C30.2291 17.0301 29.8735 16.9179 29.4131 16.9179ZM29.0365 25.9619C30.1245 25.9619 31.019 25.6091 31.7199 24.9036L28.5971 21.7286C27.8438 22.1561 27.3156 22.557 27.0121 22.9312C26.7193 23.2946 26.5728 23.7062 26.5728 24.1659C26.5728 24.7004 26.7977 25.1334 27.2475 25.4648C27.7079 25.7962 28.3042 25.9619 29.0365 25.9619Z" fill="#ADCDFD"/>
<path d="M15.8506 25.9584L9.33976 37.985L5.43328 45.4682H0.90625V23.0185V0.56897H7.18332L6.73544 29.9673L24.9657 0.56897H32.0405L19.4236 20.7736L39.3847 45.4682H32.0405L15.8506 25.9584Z" fill="#7EACF0"/>
<path d="M21.3618 44.3583C17.4805 44.3583 13.9836 43.4978 10.8712 41.7766C7.75885 40.0181 5.30556 37.6048 3.51137 34.5367C1.75378 31.4685 0.875 28.0449 0.875 24.2659C0.875 20.4869 1.75378 17.0633 3.51137 13.9952C5.30556 10.9271 7.75885 8.53249 10.8712 6.81135C13.9836 5.05281 17.4805 4.17352 21.3618 4.17352C25.2065 4.17352 28.685 5.05281 31.7974 6.81135C34.9098 8.53249 37.3448 10.9271 39.1023 13.9952C40.86 17.0259 41.7387 20.4495 41.7387 24.2659C41.7387 28.0824 40.86 31.5246 39.1023 34.5927C37.3448 37.6235 34.9098 40.0181 31.7974 41.7766C28.685 43.4978 25.2065 44.3583 21.3618 44.3583ZM21.3618 39.3633C24.1812 39.3633 26.7077 38.7085 28.9414 37.399C31.2115 36.0894 32.9874 34.2935 34.269 32.0111C35.5872 29.6912 36.2463 27.1096 36.2463 24.2659C36.2463 21.4223 35.5872 18.8594 34.269 16.577C32.9874 14.2572 31.2115 12.4425 28.9414 11.1329C26.7077 9.82334 24.1812 9.16856 21.3618 9.16856C18.5423 9.16856 15.9792 9.82334 13.6723 11.1329C11.4022 12.4425 9.60797 14.2572 8.28978 16.577C7.00822 18.8594 6.36743 21.4223 6.36743 24.2659C6.36743 27.1096 7.00822 29.6912 8.28978 32.0111C9.60797 34.2935 11.4022 36.0894 13.6723 37.399C15.9792 38.7085 18.5423 39.3633 21.3618 39.3633Z" fill="#BDD7FF"/>
<path d="M32.1293 0.56897L5.43508 45.8243H0.877529L0.765625 0.56897H7.37538V28.631L24.3164 0.56897H32.1293Z" fill="white"/>
</svg>
