<svg width="1600" height="233" viewBox="0 0 1600 233" fill="none" xmlns="http://www.w3.org/2000/svg">
<path fill-rule="evenodd" clip-rule="evenodd" d="M1533.33 194.393L1600 201.464V138.471V137.817V70.0128L1533.33 55.7507C1466.67 41.4886 1333.33 12.9644 1200 10.112C1129.41 8.60193 1058.82 14.287 988.235 19.9721C925.49 25.0255 862.745 30.0789 800 30.0789C723.809 30.0789 647.619 22.6277 571.428 15.1765C514.286 9.5881 457.143 3.99969 400 1.55475C266.667 -4.15009 133.333 7.25961 66.6666 12.9644L0 18.6693V137.817V138.471V180.249L66.6666 190.857C133.333 201.464 266.667 222.68 400 229.752C533.333 236.824 666.667 229.752 800 215.608C933.333 201.464 1066.67 191.974 1200 188.438C1333.33 184.902 1466.67 187.321 1533.33 194.393Z" fill="#ED502E"/>
</svg>
